<svg width="237" height="137" viewBox="0 0 237 137" fill="none" xmlns="http://www.w3.org/2000/svg">
<path d="M82.965 66.8C90.895 68.49 97.265 72.455 102.075 78.695C106.885 84.805 109.29 91.825 109.29 99.755C109.29 111.195 105.26 120.295 97.2 127.055C89.27 133.685 78.155 137 63.855 137H0.0900005V0.109996H61.71C75.62 0.109996 86.475 3.29499 94.275 9.66499C102.205 16.035 106.17 24.68 106.17 35.6C106.17 43.66 104.025 50.355 99.735 55.685C95.575 61.015 89.985 64.72 82.965 66.8ZM33.435 55.49H55.275C60.735 55.49 64.895 54.32 67.755 51.98C70.745 49.51 72.24 45.935 72.24 41.255C72.24 36.575 70.745 33 67.755 30.53C64.895 28.06 60.735 26.825 55.275 26.825H33.435V55.49ZM58.005 110.09C63.595 110.09 67.885 108.855 70.875 106.385C73.995 103.785 75.555 100.08 75.555 95.27C75.555 90.46 73.93 86.69 70.68 83.96C67.56 81.23 63.205 79.865 57.615 79.865H33.435V110.09H58.005ZM198.44 137L169.97 85.325H161.975V137H128.63V0.109996H184.595C195.385 0.109996 204.55 1.99499 212.09 5.76499C219.76 9.53499 225.48 14.735 229.25 21.365C233.02 27.865 234.905 35.145 234.905 43.205C234.905 52.305 232.305 60.43 227.105 67.58C222.035 74.73 214.495 79.8 204.485 82.79L236.075 137H198.44ZM161.975 61.73H182.645C188.755 61.73 193.305 60.235 196.295 57.245C199.415 54.255 200.975 50.03 200.975 44.57C200.975 39.37 199.415 35.275 196.295 32.285C193.305 29.295 188.755 27.8 182.645 27.8H161.975V61.73Z" fill="#282ECD"/>
</svg>
